<?xml version="1.0" standalone="no"?><!DOCTYPE svg PUBLIC "-//W3C//DTD SVG 1.1//EN" "http://www.w3.org/Graphics/SVG/1.1/DTD/svg11.dtd"><svg t="1690726104052" class="icon" viewBox="0 0 1024 1024" version="1.1" xmlns="http://www.w3.org/2000/svg" p-id="2264" xmlns:xlink="http://www.w3.org/1999/xlink" width="200" height="200"><path d="M244.667733 443.118933h701.166934a68.266667 68.266667 0 0 1 68.266666 68.266667v1.2288a68.266667 68.266667 0 0 1-68.266666 68.266667H244.736l272.384 272.452266a68.266667 68.266667 0 0 1 0 96.529067l-0.8192 0.887467a68.266667 68.266667 0 0 1-96.529067 0L30.037333 561.152 29.354667 560.264533a68.266667 68.266667 0 0 1 0-96.529066l390.485333-390.485334a68.266667 68.266667 0 0 1 96.529067 0l0.8192 0.887467a68.266667 68.266667 0 0 1 0 96.529067l-272.384 272.452266z" fill="#2c2c2c" p-id="2265"></path></svg>